<svg xmlns="http://www.w3.org/2000/svg" width="294" height="219" viewBox="0 0 294 219"><g><g><path fill="#a98e71" d="M284.825 101.605h-30.73a3.282 3.282 0 0 1-3.263-2.96c-2.52-24.93-13.449-48.043-31.406-66C198.618 11.838 170.161.29 140.737.687c-28.588.386-55.407 11.699-75.665 31.958-12.025 12.025-21.03 26.579-26.353 42.482a3.273 3.273 0 0 1-3.107 2.228H8.676c-4.383 0-8.116 3.408-8.272 7.789a8.084 8.084 0 0 0 8.079 8.378H44.22a8.083 8.083 0 0 0 8.037-7.232c4.124-15.881 12.49-30.457 24.246-42.214 17.561-17.561 40.91-27.232 65.746-27.232 24.835 0 48.184 9.67 65.745 27.232 17.561 17.56 27.232 40.91 27.232 65.746 0 24.835-9.671 48.184-27.232 65.745-17.561 17.562-40.91 27.233-65.745 27.233-24.836 0-48.185-9.671-65.746-27.233-11.738-11.737-20.093-26.28-24.226-42.13-.26-4.23-3.763-7.581-8.057-7.581H17.611c-4.383 0-8.116 3.407-8.272 7.788a8.082 8.082 0 0 0 8.078 8.378h18.107c1.413 0 2.666.906 3.112 2.246 5.312 16 14.345 30.64 26.436 42.73 20.615 20.615 48.023 31.969 77.177 31.969 29.153 0 56.562-11.354 77.177-31.97 12.211-12.21 21.169-26.807 26.445-42.736a3.275 3.275 0 0 1 3.111-2.24h4.786c4.383 0 8.116-3.407 8.272-7.787a8.083 8.083 0 0 0-8.078-8.378 3.279 3.279 0 0 1-3.262-3.638c.055-.49.106-.978.155-1.47a3.289 3.289 0 0 1 3.267-2.976h30.897a8.084 8.084 0 0 0 8.078-8.378c-.155-4.381-3.888-7.79-8.272-7.79"/></g></g></svg>