<svg xmlns="http://www.w3.org/2000/svg" width="308" height="219" viewBox="0 0 308 219"><g><g><path fill="#ffa900" d="M299.65 101.605h-30.729a3.283 3.283 0 0 1-3.264-2.96c-2.52-24.93-13.449-48.043-31.406-66C213.443 11.838 184.986.29 155.562.687c-28.588.386-55.406 11.699-75.665 31.958-12.025 12.025-21.03 26.579-26.353 42.482a3.273 3.273 0 0 1-3.107 2.228H23.502c-4.383 0-8.117 3.408-8.273 7.789a8.084 8.084 0 0 0 8.079 8.378h35.737a8.083 8.083 0 0 0 8.037-7.232c4.124-15.881 12.491-30.457 24.246-42.214 17.561-17.561 40.911-27.232 65.746-27.232 24.835 0 48.184 9.67 65.745 27.232 17.562 17.56 27.233 40.91 27.233 65.746 0 24.835-9.671 48.184-27.233 65.745-17.561 17.562-40.909 27.233-65.745 27.233-24.835 0-48.185-9.671-65.746-27.233-11.737-11.737-20.093-26.28-24.226-42.13-.259-4.23-3.763-7.581-8.057-7.581H32.436c-4.383 0-8.116 3.407-8.272 7.788a8.083 8.083 0 0 0 8.078 8.378h18.107a3.28 3.28 0 0 1 3.112 2.246c5.313 16 14.346 30.64 26.436 42.73 20.615 20.615 48.023 31.969 77.177 31.969 29.154 0 56.562-11.354 77.177-31.97 12.211-12.21 21.169-26.807 26.446-42.736a3.272 3.272 0 0 1 3.11-2.24h4.786c4.383 0 8.116-3.407 8.272-7.787a8.083 8.083 0 0 0-8.078-8.378 3.279 3.279 0 0 1-3.262-3.638c.055-.49.106-.978.155-1.47a3.288 3.288 0 0 1 3.267-2.976h30.897a8.083 8.083 0 0 0 8.078-8.378c-.155-4.381-3.888-7.79-8.272-7.79"/></g><g><path fill="#ffa900" d="M8.417 125.856a8.083 8.083 0 1 0 0 16.166 8.083 8.083 0 0 0 0-16.166"/></g></g></svg>