<svg xmlns="http://www.w3.org/2000/svg" width="344" height="219" viewBox="0 0 344 219"><g><g><path fill="#00b5b9" d="M336.001 117.696h-13.614c-4.464 0-8.083-3.667-8.083-8.132 0-4.464 3.619-8.131 8.083-8.131h13.614c4.464 0 8.083 3.667 8.083 8.13 0 4.466-3.619 8.133-8.083 8.133"/></g><g><path fill="#00b5b9" d="M299.219 118.038h-30.73a3.284 3.284 0 0 0-3.264 2.96c-2.519 24.93-13.448 48.044-31.405 66-20.808 20.809-49.265 32.355-78.689 31.959-28.588-.386-55.407-11.7-75.666-31.958-12.024-12.025-21.029-26.58-26.352-42.482a3.275 3.275 0 0 0-3.107-2.23H23.07c-4.383 0-8.116-3.407-8.272-7.787a8.084 8.084 0 0 1 8.079-8.378h35.737a8.083 8.083 0 0 1 8.037 7.232c4.124 15.88 12.49 30.457 24.246 42.213 17.562 17.56 40.91 27.233 65.746 27.233 24.835 0 48.184-9.671 65.745-27.233 17.561-17.56 27.233-40.91 27.233-65.745 0-24.835-9.672-48.184-27.233-65.745-17.561-17.562-40.91-27.233-65.745-27.233-24.836 0-48.184 9.67-65.746 27.233C79.16 55.814 70.804 70.356 66.672 86.206c-.261 4.23-3.764 7.582-8.058 7.582H32.005c-4.384 0-8.117-3.408-8.272-7.788a8.084 8.084 0 0 1 8.077-8.38h18.108a3.278 3.278 0 0 0 3.112-2.245c5.312-16 14.345-30.64 26.435-42.73C100.081 12.03 127.489.677 156.643.677c29.153 0 56.562 11.354 77.177 31.968 12.211 12.212 21.169 26.808 26.446 42.738a3.27 3.27 0 0 0 3.109 2.238h4.787c4.383 0 8.116 3.409 8.272 7.789a8.083 8.083 0 0 1-8.078 8.378 3.278 3.278 0 0 0-3.262 3.639c.054.487.106.977.155 1.468a3.288 3.288 0 0 0 3.267 2.976h30.897a8.085 8.085 0 0 1 8.078 8.379c-.155 4.38-3.888 7.788-8.272 7.788"/></g><g><path fill="#00b5b9" d="M7.986 93.788a8.084 8.084 0 1 1 0-16.168 8.084 8.084 0 0 1 0 16.168"/></g></g></svg>