<svg xmlns="http://www.w3.org/2000/svg" width="269" height="219" viewBox="0 0 269 219"><g><g><path fill="#414042" d="M236.355 32.724A109.017 109.017 0 0 0 159.181.756c-29.155-.001-56.564 11.352-77.18 31.968-12.196 12.196-21.284 26.993-26.578 43.16a2.233 2.233 0 0 1-2.12 1.55H34.541c-4.384 0-8.117 3.409-8.273 7.788a8.083 8.083 0 0 0 8.08 8.378h26.801a8.082 8.082 0 0 0 8.038-7.232c4.124-15.88 12.49-30.457 24.246-42.213 17.561-17.561 40.91-27.232 65.746-27.232 24.835 0 48.184 9.67 65.745 27.232 17.561 17.562 27.232 40.91 27.232 65.745 0 24.836-9.671 48.185-27.232 65.746-17.561 17.56-40.91 27.232-65.745 27.232-24.836 0-48.185-9.671-65.746-27.232-11.738-11.738-20.093-26.28-24.226-42.13-.26-4.23-3.763-7.582-8.058-7.582H25.606c-4.384 0-8.117 3.409-8.272 7.789a8.083 8.083 0 0 0 8.078 8.377h27.802c.972 0 1.825.633 2.125 1.557 5.28 16.27 14.398 31.157 26.662 43.42 20.615 20.615 48.024 31.969 77.178 31.969 29.153 0 56.562-11.354 77.176-31.97 20.615-20.613 31.968-48.022 31.968-77.176 0-29.154-11.353-56.562-31.968-77.176"/></g><g><path fill="#414042" d="M7.983 77.434A8.084 8.084 0 1 0 7.985 93.6a8.084 8.084 0 0 0-.002-16.166"/></g></g></svg>