<svg xmlns="http://www.w3.org/2000/svg" width="299" height="219" viewBox="0 0 299 219"><g><g><path fill="#a6adaf" d="M290.144 117.696H276.53c-4.464 0-8.083-3.667-8.083-8.132 0-4.464 3.619-8.131 8.083-8.131h13.614c4.464 0 8.083 3.667 8.083 8.13 0 4.466-3.619 8.133-8.083 8.133"/></g><g><path fill="#a6adaf" d="M202.929 109.9c0 24.837-9.672 48.185-27.233 65.746-17.561 17.562-40.909 27.233-65.745 27.233-24.835 0-48.184-9.671-65.746-27.233-17.561-17.561-27.232-40.91-27.232-65.745 0-24.835 9.671-48.184 27.232-65.745 17.562-17.562 40.911-27.233 65.746-27.233 24.836 0 48.184 9.67 65.745 27.233 17.561 17.56 27.233 40.91 27.233 65.745zm58.706.35a8.084 8.084 0 0 0-8.079-8.378h-31.09c-2.059 0-3.766-1.565-3.981-3.612-2.608-24.753-13.511-47.69-31.357-65.536C166.331 11.927 137.901.383 108.492.766c-28.608.372-55.448 11.688-75.718 31.958C12.159 53.339.806 80.747.806 109.9c0 29.153 11.354 56.562 31.968 77.177 20.237 20.238 47.022 31.549 75.577 31.956 29.265.418 57.593-10.976 78.389-31.57 12.235-12.116 21.243-26.61 26.604-42.443a4.007 4.007 0 0 1 3.792-2.732h5.363a8.084 8.084 0 0 0 8.078-8.38c-.155-4.38-3.889-7.787-8.272-7.787a3.875 3.875 0 0 1-3.849-4.3l.024-.222a3.993 3.993 0 0 1 3.975-3.562h30.908c4.383 0 8.116-3.407 8.272-7.788z"/></g></g></svg>